<mxfile host="65bd71144e" scale="2" border="0">
    <diagram id="e4Jddx4x4rbg40H27WnK" name="第 1 页">
        <mxGraphModel dx="1091" dy="943" grid="1" gridSize="10" guides="1" tooltips="1" connect="1" arrows="1" fold="1" page="1" pageScale="1" pageWidth="827" pageHeight="1169" math="0" shadow="0">
            <root>
                <mxCell id="0"/>
                <mxCell id="1" parent="0"/>
                <mxCell id="2" value="stateDiagram&#10;    state Recovery_Stand{&#10;    state if_state &lt;&lt;choice&gt;&gt;&#10;    [*] --&gt; if_state : UpsideDown&#10;    if_state --&gt; FoldLegs : True&#10;    if_state --&gt; StandUp : False&#10;&#10;    FoldLegs --&gt; RollOver : UpsideDown&#10;    FoldLegs --&gt; StandUp&#10;    RollOver --&gt; FoldLegs&#10;    StandUp --&gt; FoldLegs : Timeout&#10;    }" style="shadow=0;dashed=0;align=left;strokeWidth=1;shape=mxgraph.mermaid.abstract.mermaid;labelBackgroundColor=#ffffff;noLabel=1;theme=default;" parent="1" vertex="1">
                    <mxGeometry x="100" y="80" width="430" height="460" as="geometry"/>
                </mxCell>
            </root>
        </mxGraphModel>
    </diagram>
</mxfile>